<svg width="124" height="201" viewBox="0 0 174 251" fill="none" xmlns="http://www.w3.org/2000/svg">
<path d="M-2.05492 65.2966C-18.3141 49.5397 -39.2134 30.9368 -39.2134 51.5396C-39.2134 72.1424 -21.6109 61.1056 -25.1035 86.9475C-27.8975 107.621 -47.5932 105.991 -57.0918 102.592C-66.0311 67.9495 -81.2104 68.7874 -87.6826 73.5366C-109.641 84.3759 -97.0427 107.828 -77.0427 123.828C-59.0426 130.828 -49.6659 147.478 -52.0639 150.714C-42.6215 171.555 -74.1115 175.647 -91.0368 175.088C-107.962 174.529 -107.324 190.007 -96.4849 200.511C-85.6455 211.016 -53.7875 195.343 -39.2134 186.194C-31.9963 184.332 -19.4339 185.524 -26.9214 205.192C-34.4089 224.859 -25.1524 228.752 -19.5882 228.24C7.37152 207.427 3.95731 205.192 17.0797 214.621C23.7684 219.428 23.4041 226.477 28.3969 238.299C39.7949 265.286 55.9818 238.299 55.9818 238.299C65 205.192 88.0428 200.511 88.0428 200.511C88.0428 200.511 113.744 198.275 124.641 228.24C124.641 228.24 141.427 263.36 156.905 244.586C172.382 225.813 144.823 195.975 129.108 183.403C124.638 180.4 118.171 171.446 128.061 159.657C140.424 144.92 166.056 163.708 172.621 142.616C177.874 125.742 157.722 123.059 146.989 123.828C134.092 125.154 109.386 122.723 113.744 102.385C118.103 82.0469 142.543 66.626 160.819 59.2928C173.452 46.6595 179.649 27.738 163.055 24.9999C141.032 21.3662 141.18 23.9938 124.641 51.5396C108.101 79.0854 93.3507 68.6972 88.0428 60.0598C86.1804 52.8427 80.081 39.9449 70.5822 46.0909C58.7088 53.7735 52.9119 47.4177 52.9119 47.4177C50.696 43.9928 48.9777 29.1886 49.5599 20.109C48.3029 11.658 42.3943 -3.7216 28.8167 2.36849C11.8448 9.98109 17.0797 20.109 28.3969 47.2775C34.8198 62.6965 18.2691 84.9926 -2.05492 65.2966Z" fill="#808EF5" fill-opacity="0.5" stroke="#808EF5" stroke-opacity="0.5"/>
</svg>
