<svg width="280" height="134" viewBox="0 0 280 134" fill="none" xmlns="http://www.w3.org/2000/svg">
<path d="M103.196 -51.6811C86.9373 -67.438 66.0379 -86.0408 66.0379 -65.4381C66.0379 -44.8353 83.6405 -55.872 80.1479 -30.0302C77.3538 -9.35666 57.6582 -10.9867 48.1596 -14.3858C39.2202 -49.0281 24.041 -48.1903 17.5688 -43.4411C-4.39003 -32.6018 8.20871 -9.15015 28.2087 6.84985C46.2088 13.8499 55.5854 30.5001 53.1875 33.7361C62.6299 54.5774 31.1399 58.6697 14.2146 58.1107C-2.71066 57.5516 -2.07303 73.0289 8.76644 83.5334C19.6059 94.038 51.4639 78.3658 66.0379 69.2166C73.2551 67.3542 85.8175 68.5464 78.33 88.2141C70.8425 107.882 80.099 111.774 85.6631 111.262C112.623 90.4496 109.209 88.2141 122.331 97.6436C129.02 102.45 128.655 109.499 133.648 121.321C145.046 148.309 161.233 121.321 161.233 121.321C170.251 88.2141 193.294 83.5334 193.294 83.5334C193.294 83.5334 218.996 81.2974 229.892 111.262C229.892 111.262 246.679 146.382 262.156 127.609C277.634 108.835 250.074 78.9977 234.36 66.4257C229.89 63.4223 223.423 54.4684 233.313 42.679C245.675 27.9423 271.307 46.7305 277.873 25.638C283.125 8.76405 262.973 6.08176 252.241 6.84985C239.343 8.17666 214.637 5.7457 218.996 -14.5925C223.354 -34.9307 247.795 -50.3517 266.071 -57.6849C278.703 -70.3182 284.901 -89.2397 268.306 -91.9778C246.284 -95.6115 246.431 -92.9839 229.892 -65.4381C213.353 -37.8923 198.602 -48.2805 193.294 -56.9178C191.432 -64.135 185.332 -77.0328 175.834 -70.8867C163.96 -63.2042 158.163 -69.56 158.163 -69.56C155.947 -72.9848 154.229 -87.7891 154.811 -96.8687C153.554 -105.32 147.646 -120.699 134.068 -114.609C117.096 -106.997 122.331 -96.8687 133.648 -69.7001C140.071 -54.2812 123.52 -31.985 103.196 -51.6811Z" fill="#808EF5" fill-opacity="0.5" stroke="#808EF5" stroke-opacity="0.5"/>
</svg>
