<svg width="279" height="161" viewBox="0 0 279 161" fill="none" xmlns="http://www.w3.org/2000/svg">
<path d="M102.945 65.2966C86.6859 49.5397 65.7866 30.9368 65.7866 51.5396C65.7866 72.1424 83.3891 61.1056 79.8965 86.9475C77.1025 107.621 57.4068 105.991 47.9082 102.592C38.9689 67.9495 23.7896 68.7874 17.3174 73.5366C-4.6414 84.3759 7.95733 107.828 27.9573 123.828C45.9574 130.828 55.3341 147.478 52.9361 150.714C62.3785 171.555 30.8885 175.647 13.9632 175.088C-2.96204 174.529 -2.3244 190.007 8.51506 200.511C19.3545 211.016 51.2125 195.343 65.7866 186.194C73.0037 184.332 85.5661 185.524 78.0786 205.192C70.5911 224.859 79.8476 228.752 85.4118 228.24C112.372 207.427 108.957 205.192 122.08 214.621C128.768 219.428 131.089 225.075 130.67 231.803C142.068 258.79 155.627 247.378 160.982 238.299C161.262 206.45 185.078 202.214 196.952 204.076C210.641 201.283 216.926 234.947 224.539 251.919C230.545 257.297 246.427 263.36 261.905 244.586C277.382 225.813 249.823 195.975 234.108 183.403C229.638 180.4 223.171 171.446 233.061 159.657C245.424 144.92 271.056 163.708 277.621 142.616C282.874 125.742 262.722 123.059 251.989 123.828C239.092 125.154 214.386 122.723 218.744 102.385C223.103 82.0469 247.543 66.626 265.819 59.2928C278.452 46.6595 284.649 27.738 268.055 24.9999C246.032 21.3662 246.18 23.9938 229.641 51.5396C213.101 79.0854 198.351 68.6972 193.043 60.0598C191.18 52.8427 185.081 39.9449 175.582 46.0909C163.709 53.7735 163.01 47.4876 157.912 47.4177C153.833 47.3617 153.978 29.1886 154.56 20.109C153.303 11.658 147.394 -3.7216 133.817 2.36849C116.845 9.98109 130.673 45.6711 133.397 47.2775C136.121 48.884 123.269 84.9926 102.945 65.2966Z" fill="#F79F77" fill-opacity="0.5" stroke="#F79F77" stroke-opacity="0.5"/>
</svg>
