<svg width="201" height="273" viewBox="0 0 201 273" fill="none" xmlns="http://www.w3.org/2000/svg">
<path d="M178.215 217.032C190.506 236.047 206.677 258.881 211.318 238.808C215.96 218.735 196.324 225.522 205.549 201.131C212.929 181.619 231.751 187.644 240.239 193.096C241.144 228.862 256.122 231.465 263.497 228.296C287.334 222.683 280.343 196.996 264.462 176.901C248.502 166.026 243.117 147.691 246.183 145.079C241.679 122.646 273.281 125.753 289.645 130.111C306.009 134.469 308.875 119.246 300.681 106.57C292.487 93.8932 257.917 101.985 241.657 107.615C234.205 107.804 222.235 103.812 233.961 86.3366C245.687 68.8616 237.545 62.9834 232.009 62.2287C201.053 76.4323 203.876 79.3796 193.215 67.2359C187.782 61.0461 186.793 55.0215 188.717 48.5607C183.693 19.6991 167.911 27.7629 160.648 35.4025C153.2 66.369 129.041 65.1309 117.893 60.641C103.926 60.2784 105.778 36.9077 95.1712 13.8076C95.1712 13.8076 83.046 -8.26538 63.7366 6.53834C44.4273 21.3421 64.5557 56.6215 77.0337 72.4108C80.712 76.344 84.9956 86.5249 72.7038 95.7829C57.339 107.355 36.599 83.2753 25.45 102.346C16.5308 117.603 35.5603 124.757 46.19 126.426C59.055 128.039 82.5778 135.974 73.7491 154.808C64.9203 173.641 37.6337 183.159 18.1757 186.186C3.02127 195.648 -7.27979 212.687 8.27129 219.093C28.9087 227.595 29.357 225.002 51.6772 201.891C73.9974 178.78 86.0283 192.224 89.2538 201.835C89.4422 209.286 92.4789 223.227 103.118 219.379C116.417 214.569 115.681 220.851 120.633 222.067C124.594 223.041 120.359 240.714 117.746 249.429C117.067 257.946 119.358 274.261 133.959 271.387C152.21 267.794 146.778 229.906 144.486 227.727C142.194 225.548 162.851 193.264 178.215 217.032Z" fill="#F6D58A" fill-opacity="0.5" stroke="#F6D58A" stroke-opacity="0.5"/>
</svg>
