<svg width="248" height="123" viewBox="0 0 298 173" fill="none" xmlns="http://www.w3.org/2000/svg">
<path d="M136.086 236.634C133.555 259.134 131.607 287.045 147.912 274.452C164.218 261.858 144.723 254.673 167.31 241.641C185.38 231.216 196.129 247.8 199.245 257.395C177.292 285.645 187.234 297.146 194.949 299.366C216.95 310.119 227.809 285.813 228.247 260.204C222.784 241.68 230.23 224.081 234.257 224.001C244.979 203.788 267.467 226.209 277.37 239.946C287.273 253.683 299.133 243.717 300.821 228.718C302.509 213.718 270.632 198.085 254.482 192.143C248.597 187.569 241.861 176.898 262.004 170.802C282.146 164.706 279.569 155 275.762 150.91C242.811 142.295 243.129 146.364 242.57 130.214C242.286 121.983 245.336 116.694 250.918 112.913C265.309 87.3962 247.989 83.6409 237.53 84.9529C212.153 104.199 194.242 87.9396 188.459 77.4041C177.88 68.2776 194.116 51.365 200.538 26.7709C200.538 26.7709 205.135 2.00991 180.816 1.236C156.498 0.462103 149.729 40.5119 149.385 60.6336C149.74 66.007 146.607 76.5986 131.231 75.9777C112.012 75.2016 111.213 43.4312 90.5069 51.128C73.9417 57.2854 84.1369 74.8738 91.3051 82.8984C100.239 92.295 113.417 113.334 94.6562 122.316C75.8958 131.299 48.7516 121.382 31.7766 111.4C14.0563 109.125 -4.70691 115.786 3.2697 130.593C13.8552 150.243 15.8446 148.52 47.755 144.772C79.6654 141.024 80.4603 159.048 76.869 168.529C72.2955 174.414 65.8161 187.126 76.4865 190.886C89.8244 195.587 85.2764 199.982 88.3376 204.06C90.7865 207.323 76.3153 218.317 68.7736 223.406C62.8536 229.566 54.2934 243.644 67.4127 250.667C83.8118 259.446 103.605 226.686 103.212 223.548C102.818 220.41 139.251 208.51 136.086 236.634Z" fill="#F6D58A" fill-opacity="0.5" stroke="#F6D58A" stroke-opacity="0.5"/>
</svg>
