<svg width="134" height="208" viewBox="0 0 184 258" fill="none" xmlns="http://www.w3.org/2000/svg">
<path d="M102.988 65.0914C86.7286 49.3346 65.8293 30.7317 65.8293 51.3345C65.8293 71.9372 83.4318 60.9005 79.9392 86.7424C77.1451 107.416 57.4495 105.786 47.9509 102.387C39.0116 67.7444 23.8323 68.5823 17.3601 73.3315C-4.59871 84.1707 8.00003 107.622 28 123.622C46.0001 130.622 55.3768 147.273 52.9788 150.509C62.4212 171.35 30.9312 175.442 14.0059 174.883C-2.91934 174.324 -2.28171 189.801 8.55776 200.306C19.3972 210.811 51.2552 195.138 65.8293 185.989C73.0464 184.127 85.6088 185.319 78.1213 204.987C70.6338 224.654 79.8903 228.547 85.4544 228.035C112.414 207.222 109 204.987 122.122 214.416C128.811 219.223 131.132 224.869 130.713 231.598C142.111 258.585 155.67 247.173 161.025 238.094C161.304 206.245 185.121 202.008 196.994 203.871C210.684 201.078 216.969 234.742 224.581 251.714C230.588 257.092 246.47 263.155 261.948 244.381C277.425 225.608 249.866 195.77 234.151 183.198C229.681 180.195 223.214 171.241 233.104 159.452C245.466 144.715 271.098 163.503 277.664 142.411C282.916 125.537 262.764 122.854 252.032 123.622C239.134 124.949 214.428 122.518 218.787 102.18C223.146 81.8418 247.586 66.4208 265.862 59.0876C278.495 46.4543 284.692 27.5329 268.097 24.7947C246.075 21.1611 246.223 23.7886 229.683 51.3345C213.144 78.8803 198.393 68.492 193.085 59.8547C191.223 52.6375 185.124 39.7398 175.625 45.8858C163.751 53.5683 163.053 47.2824 157.955 47.2125C153.876 47.1566 154.02 28.9834 154.603 19.9038C153.346 11.4528 147.437 -3.92674 133.859 2.16335C116.887 9.77596 130.716 45.466 133.44 47.0724C136.163 48.6788 123.312 84.7875 102.988 65.0914Z" fill="#F79F77" fill-opacity="0.5" stroke="#F79F77" stroke-opacity="0.5"/>
</svg>
